<mxfile modified="2021-08-09T20:13:59.477Z" host="app.diagrams.net" agent="5.0 (Windows NT 10.0; Win64; x64) AppleWebKit/537.36 (KHTML, like Gecko) Chrome/91.0.4472.164 Safari/537.36 OPR/77.0.4054.277" etag="Ww30G4pxkqGLd1L5sn3m" version="14.9.5" type="github">
  <diagram id="WI9T0HZ2pTsCkuznbFz-" name="Page-1">
    <mxGraphModel dx="690" dy="377" grid="1" gridSize="10" guides="1" tooltips="1" connect="1" arrows="1" fold="1" page="1" pageScale="1" pageWidth="1169" pageHeight="827" math="0" shadow="0">
      <root>
        <mxCell id="0" />
        <mxCell id="1" parent="0" />
        <mxCell id="cYQGMGTK55NSJaOS7iGO-31" value="" style="strokeColor=#dddddd;fillColor=#ffffff;shadow=1;strokeWidth=1;rounded=1;absoluteArcSize=1;arcSize=2;fontSize=12;fontColor=#9E9E9E;align=center;html=1;container=0;" vertex="1" parent="1">
          <mxGeometry x="1050" y="130" width="200" height="60" as="geometry" />
        </mxCell>
        <mxCell id="VuLLu9dW_jVu6zIDgU6a-3" value="" style="rounded=0;arcSize=10;dashed=1;fillColor=#f5f5f5;dashPattern=1 1;strokeWidth=2;strokeColor=#666666;fontColor=#333333;" parent="1" vertex="1">
          <mxGeometry x="299.76" y="133" width="140" height="150" as="geometry" />
        </mxCell>
        <mxCell id="HTBWJPI-Xw0OWPGAoJOs-42" value="" style="rounded=0;arcSize=10;dashed=1;fillColor=#f5f5f5;dashPattern=1 1;strokeWidth=2;strokeColor=#666666;fontColor=#333333;" parent="1" vertex="1">
          <mxGeometry x="560.69" y="40" width="470" height="1390" as="geometry" />
        </mxCell>
        <mxCell id="RLjyjs_sm2IHfBNOWAbh-23" value="SQL Data&lt;br&gt;Warehouse" style="aspect=fixed;html=1;perimeter=none;align=center;shadow=0;dashed=0;image;fontSize=12;image=img/lib/mscae/SQL_Database_generic.svg;labelBackgroundColor=#ffffff;fillColor=#4D9900;spacingTop=6;" parent="1" vertex="1">
          <mxGeometry x="941.6899999999998" y="181" width="37.5" height="50" as="geometry" />
        </mxCell>
        <mxCell id="FdMbdGj8DCLykeIbWaSo-3" value="APIMEUAPIGD01" style="aspect=fixed;html=1;points=[];align=center;image;fontSize=12;image=img/lib/mscae/API_Management.svg;" parent="1" vertex="1">
          <mxGeometry x="340.00000000000006" y="183" width="59.52" height="50" as="geometry" />
        </mxCell>
        <mxCell id="HTBWJPI-Xw0OWPGAoJOs-2" style="edgeStyle=orthogonalEdgeStyle;rounded=0;orthogonalLoop=1;jettySize=auto;html=1;entryX=0;entryY=0.5;entryDx=0;entryDy=0;exitX=0.25;exitY=1;exitDx=0;exitDy=0;" parent="1" source="cYQGMGTK55NSJaOS7iGO-19" target="cYQGMGTK55NSJaOS7iGO-5" edge="1">
          <mxGeometry relative="1" as="geometry">
            <mxPoint x="623" y="370.68999999999994" as="sourcePoint" />
            <mxPoint x="753.2" y="413.65999999999997" as="targetPoint" />
          </mxGeometry>
        </mxCell>
        <mxCell id="HTBWJPI-Xw0OWPGAoJOs-15" style="edgeStyle=orthogonalEdgeStyle;rounded=0;orthogonalLoop=1;jettySize=auto;html=1;entryX=0.005;entryY=0.63;entryDx=0;entryDy=0;entryPerimeter=0;exitX=0.25;exitY=1;exitDx=0;exitDy=0;" parent="1" source="cYQGMGTK55NSJaOS7iGO-19" target="cYQGMGTK55NSJaOS7iGO-9" edge="1">
          <mxGeometry relative="1" as="geometry">
            <Array as="points">
              <mxPoint x="621" y="379" />
              <mxPoint x="621" y="769" />
            </Array>
            <mxPoint x="621" y="370.68999999999994" as="sourcePoint" />
            <mxPoint x="721" y="762" as="targetPoint" />
          </mxGeometry>
        </mxCell>
        <mxCell id="FdMbdGj8DCLykeIbWaSo-9" value="" style="aspect=fixed;html=1;points=[];align=center;image;fontSize=12;image=img/lib/mscae/Cache_Redis_Product.svg;" parent="1" vertex="1">
          <mxGeometry x="940.69" y="100" width="50" height="42" as="geometry" />
        </mxCell>
        <mxCell id="HTBWJPI-Xw0OWPGAoJOs-17" style="edgeStyle=orthogonalEdgeStyle;rounded=0;orthogonalLoop=1;jettySize=auto;html=1;exitX=1;exitY=0.5;exitDx=0;exitDy=0;" parent="1" source="cYQGMGTK55NSJaOS7iGO-8" target="HTBWJPI-Xw0OWPGAoJOs-14" edge="1">
          <mxGeometry relative="1" as="geometry">
            <mxPoint x="785.3800000000001" y="762" as="sourcePoint" />
          </mxGeometry>
        </mxCell>
        <mxCell id="HTBWJPI-Xw0OWPGAoJOs-18" style="rounded=0;orthogonalLoop=1;jettySize=auto;html=1;exitX=1;exitY=1;exitDx=0;exitDy=0;" parent="1" source="cYQGMGTK55NSJaOS7iGO-8" target="HTBWJPI-Xw0OWPGAoJOs-16" edge="1">
          <mxGeometry relative="1" as="geometry">
            <mxPoint x="785.3800000000001" y="768.655919900275" as="sourcePoint" />
          </mxGeometry>
        </mxCell>
        <mxCell id="HTBWJPI-Xw0OWPGAoJOs-19" style="edgeStyle=none;rounded=0;orthogonalLoop=1;jettySize=auto;html=1;exitX=0.25;exitY=1;exitDx=0;exitDy=0;entryX=0.25;entryY=0;entryDx=0;entryDy=0;" parent="1" source="cYQGMGTK55NSJaOS7iGO-8" target="cYQGMGTK55NSJaOS7iGO-13" edge="1">
          <mxGeometry relative="1" as="geometry">
            <mxPoint x="753.19" y="789" as="sourcePoint" />
            <mxPoint x="720" y="987" as="targetPoint" />
          </mxGeometry>
        </mxCell>
        <mxCell id="HTBWJPI-Xw0OWPGAoJOs-29" style="edgeStyle=none;rounded=0;jumpStyle=arc;orthogonalLoop=1;jettySize=auto;html=1;entryX=0.25;entryY=0;entryDx=0;entryDy=0;exitX=0.5;exitY=1;exitDx=0;exitDy=0;" parent="1" source="cYQGMGTK55NSJaOS7iGO-8" target="HTBWJPI-Xw0OWPGAoJOs-32" edge="1">
          <mxGeometry relative="1" as="geometry">
            <mxPoint x="767.4010849056604" y="789" as="sourcePoint" />
          </mxGeometry>
        </mxCell>
        <mxCell id="HTBWJPI-Xw0OWPGAoJOs-33" style="edgeStyle=none;rounded=0;jumpStyle=arc;orthogonalLoop=1;jettySize=auto;html=1;entryX=0;entryY=0.25;entryDx=0;entryDy=0;exitX=0.5;exitY=1;exitDx=0;exitDy=0;" parent="1" source="cYQGMGTK55NSJaOS7iGO-13" target="HTBWJPI-Xw0OWPGAoJOs-32" edge="1">
          <mxGeometry relative="1" as="geometry">
            <mxPoint x="785.1943103448277" y="1041" as="sourcePoint" />
          </mxGeometry>
        </mxCell>
        <mxCell id="HTBWJPI-Xw0OWPGAoJOs-35" style="edgeStyle=none;rounded=0;jumpStyle=arc;orthogonalLoop=1;jettySize=auto;html=1;exitX=1;exitY=0.5;exitDx=0;exitDy=0;" parent="1" source="cYQGMGTK55NSJaOS7iGO-13" target="HTBWJPI-Xw0OWPGAoJOs-34" edge="1">
          <mxGeometry relative="1" as="geometry">
            <mxPoint x="785.3800000000001" y="1013.8391494598222" as="sourcePoint" />
          </mxGeometry>
        </mxCell>
        <mxCell id="HTBWJPI-Xw0OWPGAoJOs-9" style="rounded=0;orthogonalLoop=1;jettySize=auto;html=1;entryX=0;entryY=0.511;entryDx=0;entryDy=0;entryPerimeter=0;jumpStyle=arc;exitX=0.75;exitY=0;exitDx=0;exitDy=0;" parent="1" source="cYQGMGTK55NSJaOS7iGO-5" target="HTBWJPI-Xw0OWPGAoJOs-5" edge="1">
          <mxGeometry relative="1" as="geometry">
            <mxPoint x="785.3800000000001" y="429.57417529622853" as="sourcePoint" />
          </mxGeometry>
        </mxCell>
        <mxCell id="HTBWJPI-Xw0OWPGAoJOs-10" style="edgeStyle=none;rounded=0;orthogonalLoop=1;jettySize=auto;html=1;exitX=1;exitY=0.25;exitDx=0;exitDy=0;" parent="1" source="cYQGMGTK55NSJaOS7iGO-5" target="HTBWJPI-Xw0OWPGAoJOs-6" edge="1">
          <mxGeometry relative="1" as="geometry">
            <mxPoint x="785.3800000000001" y="436.614728952247" as="sourcePoint" />
          </mxGeometry>
        </mxCell>
        <mxCell id="HTBWJPI-Xw0OWPGAoJOs-11" style="edgeStyle=none;rounded=0;orthogonalLoop=1;jettySize=auto;html=1;exitX=1;exitY=0.75;exitDx=0;exitDy=0;" parent="1" source="cYQGMGTK55NSJaOS7iGO-5" target="HTBWJPI-Xw0OWPGAoJOs-7" edge="1">
          <mxGeometry relative="1" as="geometry">
            <mxPoint x="785.3800000000001" y="442.7880972319887" as="sourcePoint" />
          </mxGeometry>
        </mxCell>
        <mxCell id="HTBWJPI-Xw0OWPGAoJOs-13" style="edgeStyle=none;rounded=0;orthogonalLoop=1;jettySize=auto;html=1;exitX=0.75;exitY=1;exitDx=0;exitDy=0;" parent="1" source="cYQGMGTK55NSJaOS7iGO-5" target="HTBWJPI-Xw0OWPGAoJOs-8" edge="1">
          <mxGeometry relative="1" as="geometry">
            <mxPoint x="785.3800000000001" y="448.96146551173047" as="sourcePoint" />
          </mxGeometry>
        </mxCell>
        <mxCell id="HTBWJPI-Xw0OWPGAoJOs-28" style="edgeStyle=none;rounded=0;jumpStyle=arc;orthogonalLoop=1;jettySize=auto;html=1;exitX=0.5;exitY=0;exitDx=0;exitDy=0;" parent="1" source="cYQGMGTK55NSJaOS7iGO-5" target="HTBWJPI-Xw0OWPGAoJOs-20" edge="1">
          <mxGeometry relative="1" as="geometry">
            <mxPoint x="774.2535775050817" y="413.65999999999997" as="sourcePoint" />
          </mxGeometry>
        </mxCell>
        <mxCell id="HTBWJPI-Xw0OWPGAoJOs-5" value="/customer-management/product-service/v3/cards/" style="aspect=fixed;html=1;points=[];align=center;image;fontSize=12;image=img/lib/azure2/app_services/API_Management_Services.svg;" parent="1" vertex="1">
          <mxGeometry x="1190.69" y="260" width="63.58" height="58.69" as="geometry" />
        </mxCell>
        <mxCell id="HTBWJPI-Xw0OWPGAoJOs-6" value="/cards/credit-card/v2/credit-cards/{creditCardId}" style="aspect=fixed;html=1;points=[];align=center;image;fontSize=12;image=img/lib/azure2/app_services/API_Management_Services.svg;" parent="1" vertex="1">
          <mxGeometry x="1190.69" y="352.34000000000003" width="63.58" height="58.69" as="geometry" />
        </mxCell>
        <mxCell id="HTBWJPI-Xw0OWPGAoJOs-7" value="party/customer-profile/v3/persons/{​​​​​personId}&amp;nbsp;" style="aspect=fixed;html=1;points=[];align=center;image;fontSize=12;image=img/lib/azure2/app_services/API_Management_Services.svg;" parent="1" vertex="1">
          <mxGeometry x="1190.69" y="442.34000000000003" width="63.58" height="58.69" as="geometry" />
        </mxCell>
        <mxCell id="HTBWJPI-Xw0OWPGAoJOs-8" value="/party/customer-profile/v1/person-addresses" style="aspect=fixed;html=1;points=[];align=center;image;fontSize=12;image=img/lib/azure2/app_services/API_Management_Services.svg;" parent="1" vertex="1">
          <mxGeometry x="1190.69" y="532.3399999999999" width="63.58" height="58.69" as="geometry" />
        </mxCell>
        <mxCell id="HTBWJPI-Xw0OWPGAoJOs-14" value="/business/cbaf/fico-notifications/v1/sms" style="aspect=fixed;html=1;points=[];align=center;image;fontSize=12;image=img/lib/azure2/app_services/API_Management_Services.svg;" parent="1" vertex="1">
          <mxGeometry x="1190.69" y="733" width="63.58" height="58.69" as="geometry" />
        </mxCell>
        <mxCell id="HTBWJPI-Xw0OWPGAoJOs-16" value="document-management-archive/correspondence/v2/notifications/send" style="aspect=fixed;html=1;points=[];align=center;image;fontSize=12;image=img/lib/azure2/app_services/API_Management_Services.svg;" parent="1" vertex="1">
          <mxGeometry x="1190.69" y="829.69" width="63.58" height="58.69" as="geometry" />
        </mxCell>
        <mxCell id="HTBWJPI-Xw0OWPGAoJOs-20" value="" style="rounded=1;arcSize=10;dashed=1;fillColor=none;gradientColor=none;dashPattern=1 1;strokeWidth=2;" parent="1" vertex="1">
          <mxGeometry x="900.69" y="60" width="119.5" height="230" as="geometry" />
        </mxCell>
        <mxCell id="HTBWJPI-Xw0OWPGAoJOs-30" value="SQL Data&lt;br&gt;Warehouse" style="aspect=fixed;html=1;perimeter=none;align=center;shadow=0;dashed=0;image;fontSize=12;image=img/lib/mscae/SQL_Database_generic.svg;labelBackgroundColor=#ffffff;fillColor=#4D9900;spacingTop=6;" parent="1" vertex="1">
          <mxGeometry x="931.6899999999998" y="1177" width="37.5" height="50" as="geometry" />
        </mxCell>
        <mxCell id="HTBWJPI-Xw0OWPGAoJOs-31" value="" style="aspect=fixed;html=1;points=[];align=center;image;fontSize=12;image=img/lib/mscae/Cache_Redis_Product.svg;" parent="1" vertex="1">
          <mxGeometry x="930.69" y="1096" width="50" height="42" as="geometry" />
        </mxCell>
        <mxCell id="HTBWJPI-Xw0OWPGAoJOs-32" value="" style="rounded=1;arcSize=10;dashed=1;fillColor=none;gradientColor=none;dashPattern=1 1;strokeWidth=2;" parent="1" vertex="1">
          <mxGeometry x="890.69" y="1080" width="119.5" height="200" as="geometry" />
        </mxCell>
        <mxCell id="HTBWJPI-Xw0OWPGAoJOs-34" value="account-management/fraud-case/v1/fraud-alert" style="aspect=fixed;html=1;points=[];align=center;image;fontSize=12;image=img/lib/azure2/app_services/API_Management_Services.svg;" parent="1" vertex="1">
          <mxGeometry x="1190.69" y="982.31" width="63.58" height="58.69" as="geometry" />
        </mxCell>
        <mxCell id="HTBWJPI-Xw0OWPGAoJOs-36" style="edgeStyle=orthogonalEdgeStyle;rounded=0;orthogonalLoop=1;jettySize=auto;html=1;" parent="1" source="HTBWJPI-Xw0OWPGAoJOs-37" target="HTBWJPI-Xw0OWPGAoJOs-40" edge="1">
          <mxGeometry relative="1" as="geometry">
            <mxPoint x="90.31" y="1338" as="sourcePoint" />
          </mxGeometry>
        </mxCell>
        <mxCell id="HTBWJPI-Xw0OWPGAoJOs-37" value="Fico Reply" style="aspect=fixed;html=1;perimeter=none;align=center;shadow=0;dashed=0;image;fontSize=12;image=img/lib/mscae/Stream_Analytics.svg;labelBackgroundColor=#ffffff;fillColor=#4D9900;" parent="1" vertex="1">
          <mxGeometry x="20.310000000000112" y="1312" width="65" height="51" as="geometry" />
        </mxCell>
        <mxCell id="HTBWJPI-Xw0OWPGAoJOs-41" style="edgeStyle=none;rounded=0;jumpStyle=arc;orthogonalLoop=1;jettySize=auto;html=1;entryX=0;entryY=0.75;entryDx=0;entryDy=0;exitX=0.5;exitY=0;exitDx=0;exitDy=0;" parent="1" source="cYQGMGTK55NSJaOS7iGO-16" target="HTBWJPI-Xw0OWPGAoJOs-32" edge="1">
          <mxGeometry relative="1" as="geometry">
            <mxPoint x="785.3800000000001" y="1311.9503272727272" as="sourcePoint" />
          </mxGeometry>
        </mxCell>
        <mxCell id="HTBWJPI-Xw0OWPGAoJOs-39" style="edgeStyle=orthogonalEdgeStyle;rounded=0;orthogonalLoop=1;jettySize=auto;html=1;entryX=0;entryY=0.5;entryDx=0;entryDy=0;" parent="1" source="HTBWJPI-Xw0OWPGAoJOs-40" target="cYQGMGTK55NSJaOS7iGO-16" edge="1">
          <mxGeometry relative="1" as="geometry">
            <mxPoint x="721" y="1337" as="targetPoint" />
          </mxGeometry>
        </mxCell>
        <mxCell id="HTBWJPI-Xw0OWPGAoJOs-40" value="" style="aspect=fixed;html=1;points=[];align=center;image;fontSize=12;image=img/lib/mscae/API_Management.svg;" parent="1" vertex="1">
          <mxGeometry x="530" y="1312" width="59.52" height="50" as="geometry" />
        </mxCell>
        <mxCell id="HTBWJPI-Xw0OWPGAoJOs-43" value="CBAF - LYNX" style="text;strokeColor=none;fillColor=none;html=1;fontSize=24;fontStyle=1;verticalAlign=middle;align=center;rounded=0;" parent="1" vertex="1">
          <mxGeometry x="560.69" width="470" height="40" as="geometry" />
        </mxCell>
        <mxCell id="VuLLu9dW_jVu6zIDgU6a-2" style="edgeStyle=orthogonalEdgeStyle;rounded=0;orthogonalLoop=1;jettySize=auto;html=1;" parent="1" source="VuLLu9dW_jVu6zIDgU6a-1" target="FdMbdGj8DCLykeIbWaSo-3" edge="1">
          <mxGeometry relative="1" as="geometry" />
        </mxCell>
        <mxCell id="VuLLu9dW_jVu6zIDgU6a-1" value="" style="pointerEvents=1;shadow=0;dashed=0;html=1;strokeColor=none;fillColor=#505050;labelPosition=center;verticalLabelPosition=bottom;outlineConnect=0;verticalAlign=top;align=center;shape=mxgraph.office.clouds.cloud_service_request;" parent="1" vertex="1">
          <mxGeometry y="181.78" width="65.31" height="51.22" as="geometry" />
        </mxCell>
        <mxCell id="cYQGMGTK55NSJaOS7iGO-2" style="edgeStyle=orthogonalEdgeStyle;rounded=0;orthogonalLoop=1;jettySize=auto;html=1;" edge="1" parent="1" source="VuLLu9dW_jVu6zIDgU6a-5" target="cRt9kAtt2LvQNoC4LiPY-1">
          <mxGeometry relative="1" as="geometry" />
        </mxCell>
        <mxCell id="VuLLu9dW_jVu6zIDgU6a-5" value="" style="html=1;dashed=0;whitespace=wrap;fillColor=#2875E2;strokeColor=#ffffff;points=[[0.005,0.63,0],[0.1,0.2,0],[0.9,0.2,0],[0.5,0,0],[0.995,0.63,0],[0.72,0.99,0],[0.5,1,0],[0.28,0.99,0]];shape=mxgraph.kubernetes.icon;prIcon=ing" parent="1" vertex="1">
          <mxGeometry x="539.52" y="185" width="50" height="48" as="geometry" />
        </mxCell>
        <mxCell id="VuLLu9dW_jVu6zIDgU6a-6" value="" style="edgeStyle=orthogonalEdgeStyle;rounded=0;orthogonalLoop=1;jettySize=auto;html=1;endArrow=none;" parent="1" source="FdMbdGj8DCLykeIbWaSo-3" target="VuLLu9dW_jVu6zIDgU6a-5" edge="1">
          <mxGeometry relative="1" as="geometry">
            <mxPoint x="399.52" y="208" as="sourcePoint" />
            <mxPoint x="730.6899999999998" y="208" as="targetPoint" />
          </mxGeometry>
        </mxCell>
        <mxCell id="VuLLu9dW_jVu6zIDgU6a-7" value="" style="aspect=fixed;html=1;points=[];align=center;image;fontSize=12;image=img/lib/azure2/compute/Kubernetes_Services.svg;" parent="1" vertex="1">
          <mxGeometry x="570" y="50" width="45.33" height="40" as="geometry" />
        </mxCell>
        <mxCell id="cRt9kAtt2LvQNoC4LiPY-4" value="" style="group" parent="1" vertex="1" connectable="0">
          <mxGeometry x="618.19" y="179" width="250" height="60" as="geometry" />
        </mxCell>
        <mxCell id="cRt9kAtt2LvQNoC4LiPY-1" value="" style="strokeColor=#dddddd;fillColor=#ffffff;shadow=1;strokeWidth=1;rounded=1;absoluteArcSize=1;arcSize=2;fontSize=12;fontColor=#9E9E9E;align=center;html=1;container=0;" parent="cRt9kAtt2LvQNoC4LiPY-4" vertex="1">
          <mxGeometry width="250.00000000000003" height="60" as="geometry" />
        </mxCell>
        <mxCell id="VuLLu9dW_jVu6zIDgU6a-4" value="&lt;font color=&quot;#000000&quot;&gt;[A] Lynx-Notification&lt;/font&gt;&lt;br&gt;&lt;font style=&quot;font-size: 10px&quot;&gt;app-cbaf-lynx-notification-v1&lt;/font&gt;" style="dashed=0;whitespace=wrap;fillColor=#2875E2;strokeColor=#ffffff;points=[[0.005,0.63,0],[0.1,0.2,0],[0.9,0.2,0],[0.5,0,0],[0.995,0.63,0],[0.72,0.99,0],[0.5,1,0],[0.28,0.99,0]];shape=mxgraph.kubernetes.icon;prIcon=api;html=1;spacingLeft=5;labelPosition=right;verticalLabelPosition=middle;align=left;verticalAlign=middle;fontColor=#999999;" parent="cRt9kAtt2LvQNoC4LiPY-4" vertex="1">
          <mxGeometry x="2.173913043478261" y="7.5" width="45" height="45" as="geometry" />
        </mxCell>
        <mxCell id="cYQGMGTK55NSJaOS7iGO-3" style="edgeStyle=orthogonalEdgeStyle;rounded=0;orthogonalLoop=1;jettySize=auto;html=1;entryX=0;entryY=0.5;entryDx=0;entryDy=0;" edge="1" parent="1" source="cRt9kAtt2LvQNoC4LiPY-1" target="HTBWJPI-Xw0OWPGAoJOs-20">
          <mxGeometry relative="1" as="geometry" />
        </mxCell>
        <mxCell id="cYQGMGTK55NSJaOS7iGO-4" value="" style="group" vertex="1" connectable="0" parent="1">
          <mxGeometry x="656.52" y="400" width="250" height="60" as="geometry" />
        </mxCell>
        <mxCell id="cYQGMGTK55NSJaOS7iGO-5" value="" style="strokeColor=#dddddd;fillColor=#ffffff;shadow=1;strokeWidth=1;rounded=1;absoluteArcSize=1;arcSize=2;fontSize=12;fontColor=#9E9E9E;align=center;html=1;container=0;" vertex="1" parent="cYQGMGTK55NSJaOS7iGO-4">
          <mxGeometry width="250" height="60" as="geometry" />
        </mxCell>
        <mxCell id="cYQGMGTK55NSJaOS7iGO-6" value="&lt;font color=&quot;#000000&quot;&gt;[S] Contact-data-collection&lt;/font&gt;&lt;br&gt;&lt;font style=&quot;font-size: 10px&quot;&gt;support-cbaf-contact-data-collection-v1&lt;/font&gt;" style="dashed=0;whitespace=wrap;fillColor=#2875E2;strokeColor=#ffffff;points=[[0.005,0.63,0],[0.1,0.2,0],[0.9,0.2,0],[0.5,0,0],[0.995,0.63,0],[0.72,0.99,0],[0.5,1,0],[0.28,0.99,0]];shape=mxgraph.kubernetes.icon;prIcon=api;html=1;spacingLeft=5;labelPosition=right;verticalLabelPosition=middle;align=left;verticalAlign=middle;fontColor=#999999;" vertex="1" parent="cYQGMGTK55NSJaOS7iGO-4">
          <mxGeometry x="3.483913043478261" y="7.5" width="45" height="45" as="geometry" />
        </mxCell>
        <mxCell id="cYQGMGTK55NSJaOS7iGO-7" value="" style="group" vertex="1" connectable="0" parent="1">
          <mxGeometry x="650.6899999999999" y="733" width="250" height="60" as="geometry" />
        </mxCell>
        <mxCell id="cYQGMGTK55NSJaOS7iGO-8" value="" style="strokeColor=#dddddd;fillColor=#ffffff;shadow=1;strokeWidth=1;rounded=1;absoluteArcSize=1;arcSize=2;fontSize=12;fontColor=#9E9E9E;align=center;html=1;container=0;" vertex="1" parent="cYQGMGTK55NSJaOS7iGO-7">
          <mxGeometry width="250" height="60" as="geometry" />
        </mxCell>
        <mxCell id="cYQGMGTK55NSJaOS7iGO-9" value="&lt;font color=&quot;#000000&quot;&gt;[S] Alert Management&lt;/font&gt;&lt;br&gt;&lt;font style=&quot;font-size: 10px&quot;&gt;support-cbaf-alert-management-v1&lt;/font&gt;" style="dashed=0;whitespace=wrap;fillColor=#2875E2;strokeColor=#ffffff;points=[[0.005,0.63,0],[0.1,0.2,0],[0.9,0.2,0],[0.5,0,0],[0.995,0.63,0],[0.72,0.99,0],[0.5,1,0],[0.28,0.99,0]];shape=mxgraph.kubernetes.icon;prIcon=api;html=1;spacingLeft=5;labelPosition=right;verticalLabelPosition=middle;align=left;verticalAlign=middle;fontColor=#999999;" vertex="1" parent="cYQGMGTK55NSJaOS7iGO-7">
          <mxGeometry x="2.1739130434782608" y="7.5" width="45" height="45" as="geometry" />
        </mxCell>
        <mxCell id="cYQGMGTK55NSJaOS7iGO-12" value="" style="group" vertex="1" connectable="0" parent="1">
          <mxGeometry x="650.6899999999999" y="982.31" width="250" height="60" as="geometry" />
        </mxCell>
        <mxCell id="cYQGMGTK55NSJaOS7iGO-13" value="" style="strokeColor=#dddddd;fillColor=#ffffff;shadow=1;strokeWidth=1;rounded=1;absoluteArcSize=1;arcSize=2;fontSize=12;fontColor=#9E9E9E;align=center;html=1;container=0;" vertex="1" parent="cYQGMGTK55NSJaOS7iGO-12">
          <mxGeometry width="250" height="60" as="geometry" />
        </mxCell>
        <mxCell id="cYQGMGTK55NSJaOS7iGO-14" value="&lt;font color=&quot;#000000&quot;&gt;[A] Lynx Notification-replies&lt;/font&gt;&lt;br&gt;&lt;font style=&quot;font-size: 10px&quot;&gt;app-cbaf-lynx-notification-replies-v1&lt;/font&gt;" style="dashed=0;whitespace=wrap;fillColor=#2875E2;strokeColor=#ffffff;points=[[0.005,0.63,0],[0.1,0.2,0],[0.9,0.2,0],[0.5,0,0],[0.995,0.63,0],[0.72,0.99,0],[0.5,1,0],[0.28,0.99,0]];shape=mxgraph.kubernetes.icon;prIcon=api;html=1;spacingLeft=5;labelPosition=right;verticalLabelPosition=middle;align=left;verticalAlign=middle;fontColor=#999999;" vertex="1" parent="cYQGMGTK55NSJaOS7iGO-12">
          <mxGeometry x="2.1739130434782608" y="7.5" width="45" height="45" as="geometry" />
        </mxCell>
        <mxCell id="cYQGMGTK55NSJaOS7iGO-15" value="" style="group" vertex="1" connectable="0" parent="1">
          <mxGeometry x="650.69" y="1307.5" width="250" height="60" as="geometry" />
        </mxCell>
        <mxCell id="cYQGMGTK55NSJaOS7iGO-16" value="" style="strokeColor=#dddddd;fillColor=#ffffff;shadow=1;strokeWidth=1;rounded=1;absoluteArcSize=1;arcSize=2;fontSize=12;fontColor=#9E9E9E;align=center;html=1;container=0;" vertex="1" parent="cYQGMGTK55NSJaOS7iGO-15">
          <mxGeometry width="250" height="60" as="geometry" />
        </mxCell>
        <mxCell id="cYQGMGTK55NSJaOS7iGO-17" value="&lt;font color=&quot;#000000&quot;&gt;[B] Fico Notification Reply&lt;/font&gt;&lt;br&gt;&lt;font style=&quot;font-size: 10px&quot;&gt;business-cbaf-fico-notification-reply-v1&lt;/font&gt;" style="dashed=0;whitespace=wrap;fillColor=#2875E2;strokeColor=#ffffff;points=[[0.005,0.63,0],[0.1,0.2,0],[0.9,0.2,0],[0.5,0,0],[0.995,0.63,0],[0.72,0.99,0],[0.5,1,0],[0.28,0.99,0]];shape=mxgraph.kubernetes.icon;prIcon=api;html=1;spacingLeft=5;labelPosition=right;verticalLabelPosition=middle;align=left;verticalAlign=middle;fontColor=#999999;" vertex="1" parent="cYQGMGTK55NSJaOS7iGO-15">
          <mxGeometry x="2.1739130434782608" y="7.5" width="45" height="45" as="geometry" />
        </mxCell>
        <mxCell id="cYQGMGTK55NSJaOS7iGO-22" value="" style="group" vertex="1" connectable="0" parent="1">
          <mxGeometry x="585" y="318.69" width="150" height="60" as="geometry" />
        </mxCell>
        <mxCell id="cYQGMGTK55NSJaOS7iGO-19" value="" style="strokeColor=#dddddd;fillColor=#ffffff;shadow=1;strokeWidth=1;rounded=1;absoluteArcSize=1;arcSize=2;fontSize=12;fontColor=#9E9E9E;align=center;html=1;container=0;" vertex="1" parent="cYQGMGTK55NSJaOS7iGO-22">
          <mxGeometry width="150" height="60" as="geometry" />
        </mxCell>
        <mxCell id="cYQGMGTK55NSJaOS7iGO-21" value="LogicApps&lt;br&gt;&lt;font color=&quot;#999999&quot; style=&quot;font-size: 10px&quot;&gt;CBAFLGAPP&lt;/font&gt;" style="aspect=fixed;html=1;points=[];align=left;image;fontSize=12;image=img/lib/azure2/integration/Logic_Apps.svg;labelPosition=right;verticalLabelPosition=middle;verticalAlign=middle;" vertex="1" parent="cYQGMGTK55NSJaOS7iGO-22">
          <mxGeometry x="6.519999999999982" y="12" width="46.38" height="36" as="geometry" />
        </mxCell>
        <mxCell id="cYQGMGTK55NSJaOS7iGO-28" value="" style="group" vertex="1" connectable="0" parent="1">
          <mxGeometry x="1050" y="50" width="200" height="60" as="geometry" />
        </mxCell>
        <mxCell id="cYQGMGTK55NSJaOS7iGO-24" value="" style="strokeColor=#dddddd;fillColor=#ffffff;shadow=1;strokeWidth=1;rounded=1;absoluteArcSize=1;arcSize=2;fontSize=12;fontColor=#9E9E9E;align=center;html=1;container=0;" vertex="1" parent="cYQGMGTK55NSJaOS7iGO-28">
          <mxGeometry width="200" height="60" as="geometry" />
        </mxCell>
        <mxCell id="cYQGMGTK55NSJaOS7iGO-27" value="Azure Cache for Redis&lt;br&gt;&lt;font style=&quot;font-size: 10px&quot; color=&quot;#999999&quot;&gt;r&lt;font style=&quot;font-size: 10px&quot;&gt;edieu2cbafd01 |&lt;/font&gt;&amp;nbsp;&lt;/font&gt;" style="aspect=fixed;html=1;points=[];align=left;image;fontSize=12;image=img/lib/azure2/databases/Cache_Redis.svg;labelPosition=right;verticalLabelPosition=middle;verticalAlign=middle;spacingLeft=4;" vertex="1" parent="cYQGMGTK55NSJaOS7iGO-28">
          <mxGeometry x="5" y="7.5" width="55.39" height="45" as="geometry" />
        </mxCell>
        <mxCell id="cYQGMGTK55NSJaOS7iGO-29" value="" style="aspect=fixed;html=1;points=[];align=center;image;fontSize=12;image=img/lib/azure2/databases/SQL_Database.svg;" vertex="1" parent="1">
          <mxGeometry x="1060" y="137.5" width="33.75" height="45" as="geometry" />
        </mxCell>
      </root>
    </mxGraphModel>
  </diagram>
</mxfile>
